<svg width="200" height="200" viewBox="0 0 200 200" fill="none" xmlns="http://www.w3.org/2000/svg">
  <defs>
    <linearGradient id="cryptoGrad" x1="0%" y1="0%" x2="100%" y2="100%">
      <stop offset="0%" style="stop-color:#1a2639"/>
      <stop offset="100%" style="stop-color:#2d3e50"/>
    </linearGradient>
  </defs>
  
  <!-- Background circle -->
  <circle cx="100" cy="100" r="90" fill="url(#cryptoGrad)" opacity="0.1"/>
  
  <!-- Bitcoin symbol -->
  <path d="M100 40 L100 160 M80 40 L80 160 M80 70 L120 70 C130 70 135 75 135 85 C135 95 130 100 120 100 L80 100 M80 100 L125 100 C135 100 140 105 140 115 C140 125 135 130 125 130 L80 130" 
        stroke="#c9a961" 
        stroke-width="4" 
        stroke-linecap="round" 
        stroke-linejoin="round"
        fill="none"/>
  
  <!-- Decorative nodes -->
  <circle cx="70" cy="70" r="4" fill="#c9a961"/>
  <circle cx="130" cy="100" r="4" fill="#c9a961"/>
  <circle cx="70" cy="130" r="4" fill="#c9a961"/>
  
  <!-- Network lines -->
  <g opacity="0.3">
    <line x1="40" y1="60" x2="70" y2="70" stroke="#1a2639" stroke-width="2"/>
    <line x1="130" y1="100" x2="160" y2="110" stroke="#1a2639" stroke-width="2"/>
    <line x1="70" y1="130" x2="40" y2="140" stroke="#1a2639" stroke-width="2"/>
  </g>
</svg>
